<mxfile host="Electron" modified="2024-07-07T16:42:39.939Z" agent="Mozilla/5.0 (X11; Linux x86_64) AppleWebKit/537.36 (KHTML, like Gecko) draw.io/24.5.3 Chrome/124.0.6367.207 Electron/30.0.6 Safari/537.36" etag="Y1VjsFrFLcijdxYrWbfZ" version="24.5.3" type="device">
  <diagram name="Page-1" id="fQ_WgQiGJqsnwwl_7qo3">
    <mxGraphModel dx="4893" dy="2367" grid="1" gridSize="10" guides="1" tooltips="1" connect="1" arrows="1" fold="1" page="0" pageScale="1" pageWidth="827" pageHeight="1169" math="0" shadow="0">
      <root>
        <mxCell id="0" />
        <mxCell id="1" parent="0" />
        <mxCell id="lWsutf3mSmmxTho3NDpI-37" value="" style="endArrow=none;html=1;rounded=0;strokeWidth=6;strokeColor=#5D5C5E;" edge="1" parent="1">
          <mxGeometry width="50" height="50" relative="1" as="geometry">
            <mxPoint x="1686" y="1330" as="sourcePoint" />
            <mxPoint x="1580" y="1330" as="targetPoint" />
          </mxGeometry>
        </mxCell>
        <mxCell id="lWsutf3mSmmxTho3NDpI-38" value="" style="endArrow=none;html=1;rounded=0;strokeWidth=6;strokeColor=#5D5C5E;" edge="1" parent="1">
          <mxGeometry width="50" height="50" relative="1" as="geometry">
            <mxPoint x="1670" y="1310" as="sourcePoint" />
            <mxPoint x="1580" y="1310" as="targetPoint" />
          </mxGeometry>
        </mxCell>
        <mxCell id="lWsutf3mSmmxTho3NDpI-39" value="" style="endArrow=none;html=1;rounded=0;strokeWidth=6;strokeColor=#5D5C5E;" edge="1" parent="1">
          <mxGeometry width="50" height="50" relative="1" as="geometry">
            <mxPoint x="1420" y="1329.5" as="sourcePoint" />
            <mxPoint x="1360" y="1329.5" as="targetPoint" />
          </mxGeometry>
        </mxCell>
        <mxCell id="lWsutf3mSmmxTho3NDpI-40" value="" style="endArrow=none;html=1;rounded=0;strokeWidth=6;strokeColor=#5D5C5E;" edge="1" parent="1">
          <mxGeometry width="50" height="50" relative="1" as="geometry">
            <mxPoint x="1420" y="1309.5" as="sourcePoint" />
            <mxPoint x="1360" y="1309.5" as="targetPoint" />
          </mxGeometry>
        </mxCell>
        <mxCell id="6QwXeuThkFD-9IxJBqtr-313" value="" style="endArrow=none;html=1;rounded=0;strokeWidth=6;strokeColor=#5D5C5E;" parent="1" edge="1">
          <mxGeometry width="50" height="50" relative="1" as="geometry">
            <mxPoint x="1686" y="1790" as="sourcePoint" />
            <mxPoint x="1580" y="1790" as="targetPoint" />
          </mxGeometry>
        </mxCell>
        <mxCell id="lWsutf3mSmmxTho3NDpI-34" value="" style="endArrow=none;html=1;rounded=0;strokeWidth=6;strokeColor=#5D5C5E;" edge="1" parent="1">
          <mxGeometry width="50" height="50" relative="1" as="geometry">
            <mxPoint x="1670" y="1810" as="sourcePoint" />
            <mxPoint x="1580" y="1810" as="targetPoint" />
          </mxGeometry>
        </mxCell>
        <mxCell id="lWsutf3mSmmxTho3NDpI-35" value="" style="endArrow=none;html=1;rounded=0;strokeWidth=6;strokeColor=#5D5C5E;" edge="1" parent="1">
          <mxGeometry width="50" height="50" relative="1" as="geometry">
            <mxPoint x="1420" y="1810" as="sourcePoint" />
            <mxPoint x="1360" y="1810" as="targetPoint" />
          </mxGeometry>
        </mxCell>
        <mxCell id="lWsutf3mSmmxTho3NDpI-36" value="" style="endArrow=none;html=1;rounded=0;strokeWidth=6;strokeColor=#5D5C5E;" edge="1" parent="1">
          <mxGeometry width="50" height="50" relative="1" as="geometry">
            <mxPoint x="1420" y="1790" as="sourcePoint" />
            <mxPoint x="1360" y="1790" as="targetPoint" />
          </mxGeometry>
        </mxCell>
        <mxCell id="SEtLUzUUaOyPmekFhvSF-3" value="" style="endArrow=none;html=1;rounded=0;strokeWidth=6;strokeColor=#7E3CF0;" parent="1" edge="1">
          <mxGeometry width="50" height="50" relative="1" as="geometry">
            <mxPoint x="260" y="1629.66" as="sourcePoint" />
            <mxPoint x="460" y="1630" as="targetPoint" />
          </mxGeometry>
        </mxCell>
        <mxCell id="SEtLUzUUaOyPmekFhvSF-4" value="" style="endArrow=none;html=1;rounded=0;strokeWidth=6;strokeColor=#7E3CF0;" parent="1" edge="1">
          <mxGeometry width="50" height="50" relative="1" as="geometry">
            <mxPoint x="260" y="1609.66" as="sourcePoint" />
            <mxPoint x="460" y="1609.3" as="targetPoint" />
          </mxGeometry>
        </mxCell>
        <mxCell id="SEtLUzUUaOyPmekFhvSF-1" value="" style="endArrow=none;html=1;rounded=0;strokeWidth=6;strokeColor=#7E3CF0;" parent="1" edge="1">
          <mxGeometry width="50" height="50" relative="1" as="geometry">
            <mxPoint x="260" y="1509.66" as="sourcePoint" />
            <mxPoint x="460" y="1509.3" as="targetPoint" />
          </mxGeometry>
        </mxCell>
        <mxCell id="SEtLUzUUaOyPmekFhvSF-2" value="" style="endArrow=none;html=1;rounded=0;strokeWidth=6;strokeColor=#7E3CF0;" parent="1" edge="1">
          <mxGeometry width="50" height="50" relative="1" as="geometry">
            <mxPoint x="260" y="1489.66" as="sourcePoint" />
            <mxPoint x="460" y="1490" as="targetPoint" />
          </mxGeometry>
        </mxCell>
        <mxCell id="SEtLUzUUaOyPmekFhvSF-7" value="" style="endArrow=none;html=1;rounded=0;strokeWidth=6;strokeColor=#7E3CF0;" parent="1" edge="1">
          <mxGeometry width="50" height="50" relative="1" as="geometry">
            <mxPoint x="860" y="1490" as="sourcePoint" />
            <mxPoint x="940" y="1489.5" as="targetPoint" />
          </mxGeometry>
        </mxCell>
        <mxCell id="SEtLUzUUaOyPmekFhvSF-8" value="" style="endArrow=none;html=1;rounded=0;strokeWidth=6;strokeColor=#7E3CF0;" parent="1" edge="1">
          <mxGeometry width="50" height="50" relative="1" as="geometry">
            <mxPoint x="860" y="1509.5" as="sourcePoint" />
            <mxPoint x="960" y="1510" as="targetPoint" />
          </mxGeometry>
        </mxCell>
        <mxCell id="SEtLUzUUaOyPmekFhvSF-5" value="" style="endArrow=none;html=1;rounded=0;strokeWidth=6;strokeColor=#7E3CF0;" parent="1" edge="1">
          <mxGeometry width="50" height="50" relative="1" as="geometry">
            <mxPoint x="860" y="1630" as="sourcePoint" />
            <mxPoint x="940" y="1629.5" as="targetPoint" />
          </mxGeometry>
        </mxCell>
        <mxCell id="SEtLUzUUaOyPmekFhvSF-6" value="" style="endArrow=none;html=1;rounded=0;strokeWidth=6;strokeColor=#7E3CF0;" parent="1" edge="1">
          <mxGeometry width="50" height="50" relative="1" as="geometry">
            <mxPoint x="860" y="1609.5" as="sourcePoint" />
            <mxPoint x="960" y="1610" as="targetPoint" />
          </mxGeometry>
        </mxCell>
        <mxCell id="6QwXeuThkFD-9IxJBqtr-360" value="" style="endArrow=none;html=1;rounded=0;strokeWidth=6;strokeColor=#52A1F0;" parent="1" edge="1">
          <mxGeometry width="50" height="50" relative="1" as="geometry">
            <mxPoint x="320" y="1440" as="sourcePoint" />
            <mxPoint x="505" y="1439.7599999999998" as="targetPoint" />
          </mxGeometry>
        </mxCell>
        <mxCell id="6QwXeuThkFD-9IxJBqtr-361" value="" style="endArrow=none;html=1;rounded=0;strokeWidth=6;strokeColor=#52A1F0;" parent="1" edge="1">
          <mxGeometry width="50" height="50" relative="1" as="geometry">
            <mxPoint x="320" y="1680" as="sourcePoint" />
            <mxPoint x="505" y="1679.7599999999998" as="targetPoint" />
          </mxGeometry>
        </mxCell>
        <mxCell id="6QwXeuThkFD-9IxJBqtr-333" value="" style="endArrow=none;html=1;rounded=0;strokeWidth=6;strokeColor=#F2462C;" parent="1" edge="1">
          <mxGeometry width="50" height="50" relative="1" as="geometry">
            <mxPoint x="1590" y="1200" as="sourcePoint" />
            <mxPoint x="1331" y="1200" as="targetPoint" />
          </mxGeometry>
        </mxCell>
        <mxCell id="6QwXeuThkFD-9IxJBqtr-335" value="" style="endArrow=none;html=1;rounded=0;strokeWidth=6;strokeColor=#F2462C;" parent="1" edge="1">
          <mxGeometry width="50" height="50" relative="1" as="geometry">
            <mxPoint x="1573" y="1180" as="sourcePoint" />
            <mxPoint x="1324" y="1180" as="targetPoint" />
          </mxGeometry>
        </mxCell>
        <mxCell id="6QwXeuThkFD-9IxJBqtr-334" value="" style="endArrow=none;html=1;rounded=0;strokeWidth=6;strokeColor=#F2462C;" parent="1" edge="1">
          <mxGeometry width="50" height="50" relative="1" as="geometry">
            <mxPoint x="1542" y="1140" as="sourcePoint" />
            <mxPoint x="1315" y="1140" as="targetPoint" />
          </mxGeometry>
        </mxCell>
        <mxCell id="6QwXeuThkFD-9IxJBqtr-339" value="" style="endArrow=none;html=1;rounded=0;strokeWidth=6;strokeColor=#F2462C;" parent="1" edge="1">
          <mxGeometry width="50" height="50" relative="1" as="geometry">
            <mxPoint x="1558" y="1160" as="sourcePoint" />
            <mxPoint x="1320" y="1160" as="targetPoint" />
          </mxGeometry>
        </mxCell>
        <mxCell id="6QwXeuThkFD-9IxJBqtr-340" value="" style="endArrow=none;html=1;rounded=0;strokeWidth=6;strokeColor=#F2462C;" parent="1" edge="1">
          <mxGeometry width="50" height="50" relative="1" as="geometry">
            <mxPoint x="1527" y="1120" as="sourcePoint" />
            <mxPoint x="1310" y="1120" as="targetPoint" />
          </mxGeometry>
        </mxCell>
        <mxCell id="6QwXeuThkFD-9IxJBqtr-336" value="" style="endArrow=none;html=1;rounded=0;strokeWidth=6;strokeColor=#F2462C;" parent="1" edge="1">
          <mxGeometry width="50" height="50" relative="1" as="geometry">
            <mxPoint x="1514" y="1100" as="sourcePoint" />
            <mxPoint x="1306" y="1100" as="targetPoint" />
          </mxGeometry>
        </mxCell>
        <mxCell id="6QwXeuThkFD-9IxJBqtr-341" value="" style="endArrow=none;html=1;rounded=0;strokeWidth=6;strokeColor=#F2462C;" parent="1" edge="1">
          <mxGeometry width="50" height="50" relative="1" as="geometry">
            <mxPoint x="1500.5" y="1080" as="sourcePoint" />
            <mxPoint x="1299.5" y="1080" as="targetPoint" />
          </mxGeometry>
        </mxCell>
        <mxCell id="6QwXeuThkFD-9IxJBqtr-338" value="" style="endArrow=none;html=1;rounded=0;strokeWidth=6;strokeColor=#F2462C;" parent="1" edge="1">
          <mxGeometry width="50" height="50" relative="1" as="geometry">
            <mxPoint x="1483" y="1060" as="sourcePoint" />
            <mxPoint x="1296" y="1060" as="targetPoint" />
          </mxGeometry>
        </mxCell>
        <mxCell id="6QwXeuThkFD-9IxJBqtr-342" value="" style="endArrow=none;html=1;rounded=0;strokeWidth=6;strokeColor=#F2462C;" parent="1" edge="1">
          <mxGeometry width="50" height="50" relative="1" as="geometry">
            <mxPoint x="1469" y="1040" as="sourcePoint" />
            <mxPoint x="1291" y="1040" as="targetPoint" />
          </mxGeometry>
        </mxCell>
        <mxCell id="6QwXeuThkFD-9IxJBqtr-337" value="" style="endArrow=none;html=1;rounded=0;strokeWidth=6;strokeColor=#F2462C;" parent="1" edge="1">
          <mxGeometry width="50" height="50" relative="1" as="geometry">
            <mxPoint x="1453.5" y="1020" as="sourcePoint" />
            <mxPoint x="1284" y="1020" as="targetPoint" />
          </mxGeometry>
        </mxCell>
        <mxCell id="6QwXeuThkFD-9IxJBqtr-332" value="" style="endArrow=none;html=1;rounded=0;strokeWidth=6;strokeColor=#F2462C;" parent="1" edge="1">
          <mxGeometry width="50" height="50" relative="1" as="geometry">
            <mxPoint x="1590" y="1920" as="sourcePoint" />
            <mxPoint x="1331" y="1920" as="targetPoint" />
          </mxGeometry>
        </mxCell>
        <mxCell id="6QwXeuThkFD-9IxJBqtr-331" value="" style="endArrow=none;html=1;rounded=0;strokeWidth=6;strokeColor=#F2462C;" parent="1" edge="1">
          <mxGeometry width="50" height="50" relative="1" as="geometry">
            <mxPoint x="1543" y="1980" as="sourcePoint" />
            <mxPoint x="1316" y="1980" as="targetPoint" />
          </mxGeometry>
        </mxCell>
        <mxCell id="6QwXeuThkFD-9IxJBqtr-330" value="" style="endArrow=none;html=1;rounded=0;strokeWidth=6;strokeColor=#F2462C;" parent="1" edge="1">
          <mxGeometry width="50" height="50" relative="1" as="geometry">
            <mxPoint x="1574" y="1940" as="sourcePoint" />
            <mxPoint x="1325" y="1940" as="targetPoint" />
          </mxGeometry>
        </mxCell>
        <mxCell id="6QwXeuThkFD-9IxJBqtr-329" value="" style="endArrow=none;html=1;rounded=0;strokeWidth=6;strokeColor=#F2462C;" parent="1" edge="1">
          <mxGeometry width="50" height="50" relative="1" as="geometry">
            <mxPoint x="1514" y="2020" as="sourcePoint" />
            <mxPoint x="1306" y="2020" as="targetPoint" />
          </mxGeometry>
        </mxCell>
        <mxCell id="6QwXeuThkFD-9IxJBqtr-328" value="" style="endArrow=none;html=1;rounded=0;strokeWidth=6;strokeColor=#F2462C;" parent="1" edge="1">
          <mxGeometry width="50" height="50" relative="1" as="geometry">
            <mxPoint x="1456" y="2100" as="sourcePoint" />
            <mxPoint x="1286.5" y="2100" as="targetPoint" />
          </mxGeometry>
        </mxCell>
        <mxCell id="6QwXeuThkFD-9IxJBqtr-327" value="" style="endArrow=none;html=1;rounded=0;strokeWidth=6;strokeColor=#F2462C;" parent="1" edge="1">
          <mxGeometry width="50" height="50" relative="1" as="geometry">
            <mxPoint x="1483" y="2060" as="sourcePoint" />
            <mxPoint x="1296" y="2060" as="targetPoint" />
          </mxGeometry>
        </mxCell>
        <mxCell id="6QwXeuThkFD-9IxJBqtr-319" value="" style="endArrow=none;html=1;rounded=0;strokeWidth=6;strokeColor=#F2462C;" parent="1" edge="1">
          <mxGeometry width="50" height="50" relative="1" as="geometry">
            <mxPoint x="1558" y="1960" as="sourcePoint" />
            <mxPoint x="1320" y="1960" as="targetPoint" />
          </mxGeometry>
        </mxCell>
        <mxCell id="6QwXeuThkFD-9IxJBqtr-318" value="" style="endArrow=none;html=1;rounded=0;strokeWidth=6;strokeColor=#F2462C;" parent="1" edge="1">
          <mxGeometry width="50" height="50" relative="1" as="geometry">
            <mxPoint x="1529" y="2000" as="sourcePoint" />
            <mxPoint x="1312" y="2000" as="targetPoint" />
          </mxGeometry>
        </mxCell>
        <mxCell id="6QwXeuThkFD-9IxJBqtr-317" value="" style="endArrow=none;html=1;rounded=0;strokeWidth=6;strokeColor=#F2462C;" parent="1" edge="1">
          <mxGeometry width="50" height="50" relative="1" as="geometry">
            <mxPoint x="1501" y="2040" as="sourcePoint" />
            <mxPoint x="1300" y="2040" as="targetPoint" />
          </mxGeometry>
        </mxCell>
        <mxCell id="6QwXeuThkFD-9IxJBqtr-315" value="" style="endArrow=none;html=1;rounded=0;strokeWidth=6;strokeColor=#F2462C;" parent="1" edge="1">
          <mxGeometry width="50" height="50" relative="1" as="geometry">
            <mxPoint x="1470" y="2080" as="sourcePoint" />
            <mxPoint x="1292" y="2080" as="targetPoint" />
          </mxGeometry>
        </mxCell>
        <mxCell id="6QwXeuThkFD-9IxJBqtr-296" value="" style="endArrow=none;html=1;rounded=0;strokeWidth=6;strokeColor=#7E3CF0;" parent="1" edge="1">
          <mxGeometry width="50" height="50" relative="1" as="geometry">
            <mxPoint x="1550" y="1640" as="sourcePoint" />
            <mxPoint x="1550" y="1720" as="targetPoint" />
          </mxGeometry>
        </mxCell>
        <mxCell id="6QwXeuThkFD-9IxJBqtr-297" value="" style="endArrow=none;html=1;rounded=0;strokeWidth=6;strokeColor=#7E3CF0;" parent="1" edge="1">
          <mxGeometry width="50" height="50" relative="1" as="geometry">
            <mxPoint x="1570" y="1640" as="sourcePoint" />
            <mxPoint x="1570" y="1740" as="targetPoint" />
          </mxGeometry>
        </mxCell>
        <mxCell id="6QwXeuThkFD-9IxJBqtr-294" value="" style="endArrow=none;html=1;rounded=0;strokeWidth=6;strokeColor=#7E3CF0;" parent="1" edge="1">
          <mxGeometry width="50" height="50" relative="1" as="geometry">
            <mxPoint x="1430" y="1640" as="sourcePoint" />
            <mxPoint x="1430" y="1740" as="targetPoint" />
          </mxGeometry>
        </mxCell>
        <mxCell id="6QwXeuThkFD-9IxJBqtr-295" value="" style="endArrow=none;html=1;rounded=0;strokeWidth=6;strokeColor=#7E3CF0;" parent="1" edge="1">
          <mxGeometry width="50" height="50" relative="1" as="geometry">
            <mxPoint x="1450" y="1640" as="sourcePoint" />
            <mxPoint x="1450" y="1720" as="targetPoint" />
          </mxGeometry>
        </mxCell>
        <mxCell id="6QwXeuThkFD-9IxJBqtr-292" value="" style="endArrow=none;html=1;rounded=0;strokeWidth=6;strokeColor=#7E3CF0;" parent="1" edge="1">
          <mxGeometry width="50" height="50" relative="1" as="geometry">
            <mxPoint x="1430" y="1380" as="sourcePoint" />
            <mxPoint x="1430" y="1480" as="targetPoint" />
          </mxGeometry>
        </mxCell>
        <mxCell id="6QwXeuThkFD-9IxJBqtr-293" value="" style="endArrow=none;html=1;rounded=0;strokeWidth=6;strokeColor=#7E3CF0;" parent="1" edge="1">
          <mxGeometry width="50" height="50" relative="1" as="geometry">
            <mxPoint x="1450" y="1400" as="sourcePoint" />
            <mxPoint x="1450" y="1480" as="targetPoint" />
          </mxGeometry>
        </mxCell>
        <mxCell id="6QwXeuThkFD-9IxJBqtr-290" value="" style="endArrow=none;html=1;rounded=0;strokeWidth=6;strokeColor=#7E3CF0;" parent="1" edge="1">
          <mxGeometry width="50" height="50" relative="1" as="geometry">
            <mxPoint x="1550" y="1400" as="sourcePoint" />
            <mxPoint x="1550" y="1480" as="targetPoint" />
          </mxGeometry>
        </mxCell>
        <mxCell id="6QwXeuThkFD-9IxJBqtr-291" value="" style="endArrow=none;html=1;rounded=0;strokeWidth=6;strokeColor=#7E3CF0;" parent="1" edge="1">
          <mxGeometry width="50" height="50" relative="1" as="geometry">
            <mxPoint x="1570" y="1380" as="sourcePoint" />
            <mxPoint x="1570" y="1480" as="targetPoint" />
          </mxGeometry>
        </mxCell>
        <mxCell id="6QwXeuThkFD-9IxJBqtr-208" value="" style="endArrow=none;html=1;rounded=0;strokeWidth=6;strokeColor=#7E3CF0;" parent="1" edge="1">
          <mxGeometry width="50" height="50" relative="1" as="geometry">
            <mxPoint x="1580" y="1629.74" as="sourcePoint" />
            <mxPoint x="1660" y="1629.74" as="targetPoint" />
          </mxGeometry>
        </mxCell>
        <mxCell id="6QwXeuThkFD-9IxJBqtr-209" value="" style="endArrow=none;html=1;rounded=0;strokeWidth=6;strokeColor=#7E3CF0;" parent="1" edge="1">
          <mxGeometry width="50" height="50" relative="1" as="geometry">
            <mxPoint x="1580" y="1609.74" as="sourcePoint" />
            <mxPoint x="1660" y="1609.74" as="targetPoint" />
          </mxGeometry>
        </mxCell>
        <mxCell id="6QwXeuThkFD-9IxJBqtr-210" value="" style="endArrow=none;html=1;rounded=0;strokeWidth=6;strokeColor=#7E3CF0;" parent="1" edge="1">
          <mxGeometry width="50" height="50" relative="1" as="geometry">
            <mxPoint x="1580" y="1489.74" as="sourcePoint" />
            <mxPoint x="1660" y="1489.74" as="targetPoint" />
          </mxGeometry>
        </mxCell>
        <mxCell id="6QwXeuThkFD-9IxJBqtr-211" value="" style="endArrow=none;html=1;rounded=0;strokeWidth=6;strokeColor=#7E3CF0;" parent="1" edge="1">
          <mxGeometry width="50" height="50" relative="1" as="geometry">
            <mxPoint x="1580" y="1509.74" as="sourcePoint" />
            <mxPoint x="1660" y="1509.74" as="targetPoint" />
          </mxGeometry>
        </mxCell>
        <mxCell id="6QwXeuThkFD-9IxJBqtr-212" value="" style="endArrow=none;html=1;rounded=0;strokeWidth=6;strokeColor=#7E3CF0;" parent="1" edge="1">
          <mxGeometry width="50" height="50" relative="1" as="geometry">
            <mxPoint x="1340" y="1630" as="sourcePoint" />
            <mxPoint x="1420" y="1630" as="targetPoint" />
          </mxGeometry>
        </mxCell>
        <mxCell id="6QwXeuThkFD-9IxJBqtr-213" value="" style="endArrow=none;html=1;rounded=0;strokeWidth=6;strokeColor=#7E3CF0;" parent="1" edge="1">
          <mxGeometry width="50" height="50" relative="1" as="geometry">
            <mxPoint x="1340" y="1610" as="sourcePoint" />
            <mxPoint x="1420" y="1610" as="targetPoint" />
          </mxGeometry>
        </mxCell>
        <mxCell id="6QwXeuThkFD-9IxJBqtr-214" value="" style="endArrow=none;html=1;rounded=0;strokeWidth=6;strokeColor=#7E3CF0;" parent="1" edge="1">
          <mxGeometry width="50" height="50" relative="1" as="geometry">
            <mxPoint x="1340" y="1510" as="sourcePoint" />
            <mxPoint x="1420" y="1510" as="targetPoint" />
          </mxGeometry>
        </mxCell>
        <mxCell id="6QwXeuThkFD-9IxJBqtr-215" value="" style="endArrow=none;html=1;rounded=0;strokeWidth=6;strokeColor=#7E3CF0;" parent="1" edge="1">
          <mxGeometry width="50" height="50" relative="1" as="geometry">
            <mxPoint x="1340" y="1490" as="sourcePoint" />
            <mxPoint x="1420" y="1490" as="targetPoint" />
          </mxGeometry>
        </mxCell>
        <mxCell id="6QwXeuThkFD-9IxJBqtr-220" value="" style="endArrow=none;html=1;rounded=0;strokeWidth=6;strokeColor=#7E3CF0;" parent="1" edge="1">
          <mxGeometry width="50" height="50" relative="1" as="geometry">
            <mxPoint x="1080" y="1610" as="sourcePoint" />
            <mxPoint x="1180" y="1610" as="targetPoint" />
          </mxGeometry>
        </mxCell>
        <mxCell id="6QwXeuThkFD-9IxJBqtr-221" value="" style="endArrow=none;html=1;rounded=0;strokeWidth=6;strokeColor=#7E3CF0;" parent="1" edge="1">
          <mxGeometry width="50" height="50" relative="1" as="geometry">
            <mxPoint x="1100" y="1630" as="sourcePoint" />
            <mxPoint x="1180" y="1630" as="targetPoint" />
          </mxGeometry>
        </mxCell>
        <mxCell id="6QwXeuThkFD-9IxJBqtr-222" value="" style="endArrow=none;html=1;rounded=0;strokeWidth=6;strokeColor=#7E3CF0;" parent="1" edge="1">
          <mxGeometry width="50" height="50" relative="1" as="geometry">
            <mxPoint x="1100" y="1490" as="sourcePoint" />
            <mxPoint x="1180" y="1490" as="targetPoint" />
          </mxGeometry>
        </mxCell>
        <mxCell id="6QwXeuThkFD-9IxJBqtr-223" value="" style="endArrow=none;html=1;rounded=0;strokeWidth=6;strokeColor=#7E3CF0;" parent="1" edge="1">
          <mxGeometry width="50" height="50" relative="1" as="geometry">
            <mxPoint x="1080" y="1510" as="sourcePoint" />
            <mxPoint x="1180" y="1510" as="targetPoint" />
          </mxGeometry>
        </mxCell>
        <mxCell id="6QwXeuThkFD-9IxJBqtr-224" value="" style="endArrow=none;html=1;rounded=0;strokeWidth=6;strokeColor=#FFFFFF;" parent="1" edge="1">
          <mxGeometry width="50" height="50" relative="1" as="geometry">
            <mxPoint x="1660" y="1580" as="sourcePoint" />
            <mxPoint x="1660" y="1580" as="targetPoint" />
            <Array as="points">
              <mxPoint x="1660" y="1640" />
              <mxPoint x="1700" y="1670" />
              <mxPoint x="1700" y="1770" />
              <mxPoint x="1440" y="2120" />
              <mxPoint x="1280" y="2120" />
              <mxPoint x="1380" y="1720" />
              <mxPoint x="1220" y="1720" />
              <mxPoint x="1140" y="1800" />
              <mxPoint x="900" y="1800" />
              <mxPoint x="820" y="1720" />
              <mxPoint x="740" y="1720" />
              <mxPoint x="700" y="1760" />
              <mxPoint x="620" y="1760" />
              <mxPoint x="580" y="1720" />
              <mxPoint x="380" y="1720" />
              <mxPoint x="260" y="1640" />
              <mxPoint x="260" y="1480" />
              <mxPoint x="380" y="1400" />
              <mxPoint x="580" y="1400" />
              <mxPoint x="620" y="1360" />
              <mxPoint x="700" y="1360" />
              <mxPoint x="740" y="1400" />
              <mxPoint x="820" y="1400" />
              <mxPoint x="900" y="1320" />
              <mxPoint x="1140" y="1320" />
              <mxPoint x="1220" y="1400" />
              <mxPoint x="1380" y="1400" />
              <mxPoint x="1280" y="1000" />
              <mxPoint x="1440" y="1000" />
              <mxPoint x="1700" y="1350" />
              <mxPoint x="1700" y="1450" />
              <mxPoint x="1660" y="1480" />
            </Array>
          </mxGeometry>
        </mxCell>
        <mxCell id="6QwXeuThkFD-9IxJBqtr-226" value="" style="rounded=0;whiteSpace=wrap;html=1;strokeColor=#C2C2C2;fillColor=none;strokeWidth=8;" parent="1" vertex="1">
          <mxGeometry x="1180" y="1480" width="160" height="160" as="geometry" />
        </mxCell>
        <mxCell id="6QwXeuThkFD-9IxJBqtr-229" value="" style="rounded=0;whiteSpace=wrap;html=1;strokeColor=#C2C2C2;fillColor=none;strokeWidth=8;" parent="1" vertex="1">
          <mxGeometry x="1420" y="1480" width="160" height="160" as="geometry" />
        </mxCell>
        <mxCell id="6QwXeuThkFD-9IxJBqtr-237" value="" style="ellipse;whiteSpace=wrap;html=1;fillColor=none;strokeWidth=6;strokeColor=#B6F0EA;" parent="1" vertex="1">
          <mxGeometry x="1110" y="1530" width="60" height="60" as="geometry" />
        </mxCell>
        <mxCell id="6QwXeuThkFD-9IxJBqtr-238" value="" style="ellipse;whiteSpace=wrap;html=1;fillColor=none;strokeWidth=6;strokeColor=#B6F0EA;" parent="1" vertex="1">
          <mxGeometry x="1350" y="1530" width="60" height="60" as="geometry" />
        </mxCell>
        <mxCell id="6QwXeuThkFD-9IxJBqtr-239" value="" style="endArrow=none;html=1;rounded=0;strokeWidth=6;strokeColor=#F08A24;" parent="1" edge="1">
          <mxGeometry width="50" height="50" relative="1" as="geometry">
            <mxPoint x="1235" y="1705" as="sourcePoint" />
            <mxPoint x="1235" y="1655" as="targetPoint" />
          </mxGeometry>
        </mxCell>
        <mxCell id="6QwXeuThkFD-9IxJBqtr-240" value="" style="endArrow=none;html=1;rounded=0;strokeWidth=6;strokeColor=#F08A24;" parent="1" edge="1">
          <mxGeometry width="50" height="50" relative="1" as="geometry">
            <mxPoint x="1250" y="1705" as="sourcePoint" />
            <mxPoint x="1250" y="1655" as="targetPoint" />
          </mxGeometry>
        </mxCell>
        <mxCell id="6QwXeuThkFD-9IxJBqtr-241" value="" style="endArrow=none;html=1;rounded=0;strokeWidth=6;strokeColor=#F08A24;" parent="1" edge="1">
          <mxGeometry width="50" height="50" relative="1" as="geometry">
            <mxPoint x="1285" y="1705" as="sourcePoint" />
            <mxPoint x="1285" y="1655" as="targetPoint" />
          </mxGeometry>
        </mxCell>
        <mxCell id="6QwXeuThkFD-9IxJBqtr-242" value="" style="endArrow=none;html=1;rounded=0;strokeWidth=6;strokeColor=#F08A24;" parent="1" edge="1">
          <mxGeometry width="50" height="50" relative="1" as="geometry">
            <mxPoint x="1270" y="1705" as="sourcePoint" />
            <mxPoint x="1270" y="1655" as="targetPoint" />
          </mxGeometry>
        </mxCell>
        <mxCell id="6QwXeuThkFD-9IxJBqtr-243" value="" style="endArrow=none;html=1;rounded=0;strokeWidth=6;strokeColor=#F08A24;" parent="1" edge="1">
          <mxGeometry width="50" height="50" relative="1" as="geometry">
            <mxPoint x="1234.71" y="1465" as="sourcePoint" />
            <mxPoint x="1234.71" y="1415" as="targetPoint" />
          </mxGeometry>
        </mxCell>
        <mxCell id="6QwXeuThkFD-9IxJBqtr-244" value="" style="endArrow=none;html=1;rounded=0;strokeWidth=6;strokeColor=#F08A24;" parent="1" edge="1">
          <mxGeometry width="50" height="50" relative="1" as="geometry">
            <mxPoint x="1249.71" y="1465" as="sourcePoint" />
            <mxPoint x="1249.71" y="1415" as="targetPoint" />
          </mxGeometry>
        </mxCell>
        <mxCell id="6QwXeuThkFD-9IxJBqtr-245" value="" style="endArrow=none;html=1;rounded=0;strokeWidth=6;strokeColor=#F08A24;" parent="1" edge="1">
          <mxGeometry width="50" height="50" relative="1" as="geometry">
            <mxPoint x="1284.71" y="1465" as="sourcePoint" />
            <mxPoint x="1284.71" y="1415" as="targetPoint" />
          </mxGeometry>
        </mxCell>
        <mxCell id="6QwXeuThkFD-9IxJBqtr-246" value="" style="endArrow=none;html=1;rounded=0;strokeWidth=6;strokeColor=#F08A24;" parent="1" edge="1">
          <mxGeometry width="50" height="50" relative="1" as="geometry">
            <mxPoint x="1269.71" y="1465" as="sourcePoint" />
            <mxPoint x="1269.71" y="1415" as="targetPoint" />
          </mxGeometry>
        </mxCell>
        <mxCell id="6QwXeuThkFD-9IxJBqtr-247" value="" style="endArrow=none;html=1;rounded=0;strokeWidth=6;strokeColor=#F08A24;" parent="1" edge="1">
          <mxGeometry width="50" height="50" relative="1" as="geometry">
            <mxPoint x="754.86" y="1705" as="sourcePoint" />
            <mxPoint x="754.86" y="1655" as="targetPoint" />
          </mxGeometry>
        </mxCell>
        <mxCell id="6QwXeuThkFD-9IxJBqtr-248" value="" style="endArrow=none;html=1;rounded=0;strokeWidth=6;strokeColor=#F08A24;" parent="1" edge="1">
          <mxGeometry width="50" height="50" relative="1" as="geometry">
            <mxPoint x="769.86" y="1705" as="sourcePoint" />
            <mxPoint x="769.86" y="1655" as="targetPoint" />
          </mxGeometry>
        </mxCell>
        <mxCell id="6QwXeuThkFD-9IxJBqtr-249" value="" style="endArrow=none;html=1;rounded=0;strokeWidth=6;strokeColor=#F08A24;" parent="1" edge="1">
          <mxGeometry width="50" height="50" relative="1" as="geometry">
            <mxPoint x="804.86" y="1705" as="sourcePoint" />
            <mxPoint x="804.86" y="1655" as="targetPoint" />
          </mxGeometry>
        </mxCell>
        <mxCell id="6QwXeuThkFD-9IxJBqtr-250" value="" style="endArrow=none;html=1;rounded=0;strokeWidth=6;strokeColor=#F08A24;" parent="1" edge="1">
          <mxGeometry width="50" height="50" relative="1" as="geometry">
            <mxPoint x="789.86" y="1705" as="sourcePoint" />
            <mxPoint x="789.86" y="1655" as="targetPoint" />
          </mxGeometry>
        </mxCell>
        <mxCell id="6QwXeuThkFD-9IxJBqtr-251" value="" style="endArrow=none;html=1;rounded=0;strokeWidth=6;strokeColor=#F08A24;" parent="1" edge="1">
          <mxGeometry width="50" height="50" relative="1" as="geometry">
            <mxPoint x="754.57" y="1465" as="sourcePoint" />
            <mxPoint x="754.57" y="1415" as="targetPoint" />
          </mxGeometry>
        </mxCell>
        <mxCell id="6QwXeuThkFD-9IxJBqtr-252" value="" style="endArrow=none;html=1;rounded=0;strokeWidth=6;strokeColor=#F08A24;" parent="1" edge="1">
          <mxGeometry width="50" height="50" relative="1" as="geometry">
            <mxPoint x="769.57" y="1465" as="sourcePoint" />
            <mxPoint x="769.57" y="1415" as="targetPoint" />
          </mxGeometry>
        </mxCell>
        <mxCell id="6QwXeuThkFD-9IxJBqtr-253" value="" style="endArrow=none;html=1;rounded=0;strokeWidth=6;strokeColor=#F08A24;" parent="1" edge="1">
          <mxGeometry width="50" height="50" relative="1" as="geometry">
            <mxPoint x="804.57" y="1465" as="sourcePoint" />
            <mxPoint x="804.57" y="1415" as="targetPoint" />
          </mxGeometry>
        </mxCell>
        <mxCell id="6QwXeuThkFD-9IxJBqtr-254" value="" style="endArrow=none;html=1;rounded=0;strokeWidth=6;strokeColor=#F08A24;" parent="1" edge="1">
          <mxGeometry width="50" height="50" relative="1" as="geometry">
            <mxPoint x="789.57" y="1465" as="sourcePoint" />
            <mxPoint x="789.57" y="1415" as="targetPoint" />
          </mxGeometry>
        </mxCell>
        <mxCell id="6QwXeuThkFD-9IxJBqtr-255" value="" style="ellipse;whiteSpace=wrap;html=1;fillColor=none;strokeWidth=6;strokeColor=#B6F0EA;" parent="1" vertex="1">
          <mxGeometry x="1590" y="1530" width="60" height="60" as="geometry" />
        </mxCell>
        <mxCell id="6QwXeuThkFD-9IxJBqtr-270" value="" style="endArrow=none;html=1;rounded=0;strokeWidth=6;strokeColor=#F08A24;" parent="1" edge="1">
          <mxGeometry width="50" height="50" relative="1" as="geometry">
            <mxPoint x="514.81" y="1705" as="sourcePoint" />
            <mxPoint x="514.81" y="1655" as="targetPoint" />
          </mxGeometry>
        </mxCell>
        <mxCell id="6QwXeuThkFD-9IxJBqtr-271" value="" style="endArrow=none;html=1;rounded=0;strokeWidth=6;strokeColor=#F08A24;" parent="1" edge="1">
          <mxGeometry width="50" height="50" relative="1" as="geometry">
            <mxPoint x="529.81" y="1705" as="sourcePoint" />
            <mxPoint x="529.81" y="1655" as="targetPoint" />
          </mxGeometry>
        </mxCell>
        <mxCell id="6QwXeuThkFD-9IxJBqtr-272" value="" style="endArrow=none;html=1;rounded=0;strokeWidth=6;strokeColor=#F08A24;" parent="1" edge="1">
          <mxGeometry width="50" height="50" relative="1" as="geometry">
            <mxPoint x="564.81" y="1705" as="sourcePoint" />
            <mxPoint x="564.81" y="1655" as="targetPoint" />
          </mxGeometry>
        </mxCell>
        <mxCell id="6QwXeuThkFD-9IxJBqtr-273" value="" style="endArrow=none;html=1;rounded=0;strokeWidth=6;strokeColor=#F08A24;" parent="1" edge="1">
          <mxGeometry width="50" height="50" relative="1" as="geometry">
            <mxPoint x="549.81" y="1705" as="sourcePoint" />
            <mxPoint x="549.81" y="1655" as="targetPoint" />
          </mxGeometry>
        </mxCell>
        <mxCell id="6QwXeuThkFD-9IxJBqtr-274" value="" style="endArrow=none;html=1;rounded=0;strokeWidth=6;strokeColor=#F08A24;" parent="1" edge="1">
          <mxGeometry width="50" height="50" relative="1" as="geometry">
            <mxPoint x="514.52" y="1465" as="sourcePoint" />
            <mxPoint x="514.52" y="1415" as="targetPoint" />
          </mxGeometry>
        </mxCell>
        <mxCell id="6QwXeuThkFD-9IxJBqtr-275" value="" style="endArrow=none;html=1;rounded=0;strokeWidth=6;strokeColor=#F08A24;" parent="1" edge="1">
          <mxGeometry width="50" height="50" relative="1" as="geometry">
            <mxPoint x="529.52" y="1465" as="sourcePoint" />
            <mxPoint x="529.52" y="1415" as="targetPoint" />
          </mxGeometry>
        </mxCell>
        <mxCell id="6QwXeuThkFD-9IxJBqtr-276" value="" style="endArrow=none;html=1;rounded=0;strokeWidth=6;strokeColor=#F08A24;" parent="1" edge="1">
          <mxGeometry width="50" height="50" relative="1" as="geometry">
            <mxPoint x="564.52" y="1465" as="sourcePoint" />
            <mxPoint x="564.52" y="1415" as="targetPoint" />
          </mxGeometry>
        </mxCell>
        <mxCell id="6QwXeuThkFD-9IxJBqtr-277" value="" style="endArrow=none;html=1;rounded=0;strokeWidth=6;strokeColor=#F08A24;" parent="1" edge="1">
          <mxGeometry width="50" height="50" relative="1" as="geometry">
            <mxPoint x="549.52" y="1465" as="sourcePoint" />
            <mxPoint x="549.52" y="1415" as="targetPoint" />
          </mxGeometry>
        </mxCell>
        <mxCell id="6QwXeuThkFD-9IxJBqtr-278" value="" style="endArrow=none;html=1;rounded=0;strokeWidth=6;strokeColor=#5D5C5E;" parent="1" edge="1">
          <mxGeometry width="50" height="50" relative="1" as="geometry">
            <mxPoint x="640" y="1740" as="sourcePoint" />
            <mxPoint x="640" y="1650" as="targetPoint" />
          </mxGeometry>
        </mxCell>
        <mxCell id="6QwXeuThkFD-9IxJBqtr-279" value="" style="endArrow=none;html=1;rounded=0;strokeWidth=6;strokeColor=#5D5C5E;" parent="1" edge="1">
          <mxGeometry width="50" height="50" relative="1" as="geometry">
            <mxPoint x="659.7" y="1740" as="sourcePoint" />
            <mxPoint x="659.7" y="1650" as="targetPoint" />
          </mxGeometry>
        </mxCell>
        <mxCell id="6QwXeuThkFD-9IxJBqtr-280" value="" style="endArrow=none;html=1;rounded=0;strokeWidth=6;strokeColor=#5D5C5E;" parent="1" edge="1">
          <mxGeometry width="50" height="50" relative="1" as="geometry">
            <mxPoint x="639.78" y="1470" as="sourcePoint" />
            <mxPoint x="639.78" y="1380" as="targetPoint" />
          </mxGeometry>
        </mxCell>
        <mxCell id="6QwXeuThkFD-9IxJBqtr-281" value="" style="endArrow=none;html=1;rounded=0;strokeWidth=6;strokeColor=#5D5C5E;" parent="1" edge="1">
          <mxGeometry width="50" height="50" relative="1" as="geometry">
            <mxPoint x="679.78" y="1470" as="sourcePoint" />
            <mxPoint x="679.78" y="1380" as="targetPoint" />
          </mxGeometry>
        </mxCell>
        <mxCell id="6QwXeuThkFD-9IxJBqtr-282" value="" style="endArrow=none;html=1;rounded=0;strokeWidth=6;strokeColor=#5D5C5E;" parent="1" edge="1">
          <mxGeometry width="50" height="50" relative="1" as="geometry">
            <mxPoint x="680" y="1740" as="sourcePoint" />
            <mxPoint x="680" y="1650" as="targetPoint" />
          </mxGeometry>
        </mxCell>
        <mxCell id="6QwXeuThkFD-9IxJBqtr-283" value="" style="endArrow=none;html=1;rounded=0;strokeWidth=6;strokeColor=#5D5C5E;" parent="1" edge="1">
          <mxGeometry width="50" height="50" relative="1" as="geometry">
            <mxPoint x="659.7" y="1470" as="sourcePoint" />
            <mxPoint x="659.7" y="1380" as="targetPoint" />
          </mxGeometry>
        </mxCell>
        <mxCell id="6QwXeuThkFD-9IxJBqtr-287" value="" style="ellipse;whiteSpace=wrap;html=1;fillColor=none;strokeWidth=6;strokeColor=#B6F0EA;" parent="1" vertex="1">
          <mxGeometry x="1470" y="1410" width="60" height="60" as="geometry" />
        </mxCell>
        <mxCell id="6QwXeuThkFD-9IxJBqtr-288" value="" style="ellipse;whiteSpace=wrap;html=1;fillColor=none;strokeWidth=6;strokeColor=#B6F0EA;" parent="1" vertex="1">
          <mxGeometry x="1470" y="1650" width="60" height="60" as="geometry" />
        </mxCell>
        <mxCell id="6QwXeuThkFD-9IxJBqtr-321" value="" style="endArrow=none;html=1;rounded=0;strokeWidth=6;strokeColor=#FFFFFF;" parent="1" edge="1">
          <mxGeometry width="50" height="50" relative="1" as="geometry">
            <mxPoint x="1603" y="1900" as="sourcePoint" />
            <mxPoint x="1335" y="1900" as="targetPoint" />
          </mxGeometry>
        </mxCell>
        <mxCell id="6QwXeuThkFD-9IxJBqtr-343" value="" style="endArrow=none;html=1;rounded=0;strokeWidth=6;strokeColor=#FFFFFF;" parent="1" edge="1">
          <mxGeometry width="50" height="50" relative="1" as="geometry">
            <mxPoint x="1604" y="1220" as="sourcePoint" />
            <mxPoint x="1336" y="1220" as="targetPoint" />
          </mxGeometry>
        </mxCell>
        <mxCell id="6QwXeuThkFD-9IxJBqtr-353" value="" style="endArrow=none;html=1;rounded=0;strokeWidth=6;strokeColor=#52A1F0;" parent="1" edge="1">
          <mxGeometry width="50" height="50" relative="1" as="geometry">
            <mxPoint x="815" y="1440" as="sourcePoint" />
            <mxPoint x="950" y="1440" as="targetPoint" />
          </mxGeometry>
        </mxCell>
        <mxCell id="6QwXeuThkFD-9IxJBqtr-355" value="" style="endArrow=none;html=1;rounded=0;strokeWidth=6;strokeColor=#52A1F0;" parent="1" edge="1">
          <mxGeometry width="50" height="50" relative="1" as="geometry">
            <mxPoint x="815" y="1679.76" as="sourcePoint" />
            <mxPoint x="950" y="1680" as="targetPoint" />
          </mxGeometry>
        </mxCell>
        <mxCell id="6QwXeuThkFD-9IxJBqtr-356" value="" style="endArrow=none;html=1;rounded=0;strokeWidth=6;strokeColor=#52A1F0;" parent="1" edge="1">
          <mxGeometry width="50" height="50" relative="1" as="geometry">
            <mxPoint x="690" y="1680" as="sourcePoint" />
            <mxPoint x="745" y="1680" as="targetPoint" />
          </mxGeometry>
        </mxCell>
        <mxCell id="6QwXeuThkFD-9IxJBqtr-357" value="" style="endArrow=none;html=1;rounded=0;strokeWidth=6;strokeColor=#52A1F0;" parent="1" edge="1">
          <mxGeometry width="50" height="50" relative="1" as="geometry">
            <mxPoint x="690" y="1439.8899999999999" as="sourcePoint" />
            <mxPoint x="745" y="1439.8899999999999" as="targetPoint" />
          </mxGeometry>
        </mxCell>
        <mxCell id="6QwXeuThkFD-9IxJBqtr-358" value="" style="endArrow=none;html=1;rounded=0;strokeWidth=6;strokeColor=#52A1F0;" parent="1" edge="1">
          <mxGeometry width="50" height="50" relative="1" as="geometry">
            <mxPoint x="575" y="1439.7599999999998" as="sourcePoint" />
            <mxPoint x="630" y="1439.7599999999998" as="targetPoint" />
          </mxGeometry>
        </mxCell>
        <mxCell id="6QwXeuThkFD-9IxJBqtr-359" value="" style="endArrow=none;html=1;rounded=0;strokeWidth=6;strokeColor=#52A1F0;" parent="1" edge="1">
          <mxGeometry width="50" height="50" relative="1" as="geometry">
            <mxPoint x="575" y="1679.7599999999998" as="sourcePoint" />
            <mxPoint x="630" y="1679.7599999999998" as="targetPoint" />
          </mxGeometry>
        </mxCell>
        <mxCell id="6QwXeuThkFD-9IxJBqtr-362" value="" style="endArrow=none;html=1;rounded=0;strokeWidth=6;strokeColor=#52A1F0;" parent="1" edge="1">
          <mxGeometry width="50" height="50" relative="1" as="geometry">
            <mxPoint x="1090" y="1440" as="sourcePoint" />
            <mxPoint x="1225" y="1439.71" as="targetPoint" />
          </mxGeometry>
        </mxCell>
        <mxCell id="6QwXeuThkFD-9IxJBqtr-363" value="" style="endArrow=none;html=1;rounded=0;strokeWidth=6;strokeColor=#52A1F0;" parent="1" edge="1">
          <mxGeometry width="50" height="50" relative="1" as="geometry">
            <mxPoint x="1090" y="1680" as="sourcePoint" />
            <mxPoint x="1225" y="1679.71" as="targetPoint" />
          </mxGeometry>
        </mxCell>
        <mxCell id="6QwXeuThkFD-9IxJBqtr-364" value="" style="endArrow=none;html=1;rounded=0;strokeWidth=6;strokeColor=#52A1F0;" parent="1" edge="1">
          <mxGeometry width="50" height="50" relative="1" as="geometry">
            <mxPoint x="1295" y="1679.86" as="sourcePoint" />
            <mxPoint x="1420" y="1680" as="targetPoint" />
          </mxGeometry>
        </mxCell>
        <mxCell id="6QwXeuThkFD-9IxJBqtr-365" value="" style="endArrow=none;html=1;rounded=0;strokeWidth=6;strokeColor=#52A1F0;" parent="1" edge="1">
          <mxGeometry width="50" height="50" relative="1" as="geometry">
            <mxPoint x="1295" y="1439.86" as="sourcePoint" />
            <mxPoint x="1420" y="1440" as="targetPoint" />
          </mxGeometry>
        </mxCell>
        <mxCell id="6QwXeuThkFD-9IxJBqtr-366" value="" style="endArrow=none;html=1;rounded=0;strokeWidth=6;strokeColor=#52A1F0;" parent="1" edge="1">
          <mxGeometry width="50" height="50" relative="1" as="geometry">
            <mxPoint x="1580" y="1439.5799999999997" as="sourcePoint" />
            <mxPoint x="1690" y="1440" as="targetPoint" />
          </mxGeometry>
        </mxCell>
        <mxCell id="6QwXeuThkFD-9IxJBqtr-367" value="" style="endArrow=none;html=1;rounded=0;strokeWidth=6;strokeColor=#52A1F0;" parent="1" edge="1">
          <mxGeometry width="50" height="50" relative="1" as="geometry">
            <mxPoint x="1580" y="1679.7899999999997" as="sourcePoint" />
            <mxPoint x="1690" y="1680.21" as="targetPoint" />
          </mxGeometry>
        </mxCell>
        <mxCell id="SEtLUzUUaOyPmekFhvSF-10" value="" style="ellipse;whiteSpace=wrap;html=1;fillColor=none;strokeWidth=6;strokeColor=#B6F0EA;" parent="1" vertex="1">
          <mxGeometry x="870" y="1529.5" width="60" height="60" as="geometry" />
        </mxCell>
        <mxCell id="SEtLUzUUaOyPmekFhvSF-11" value="" style="ellipse;whiteSpace=wrap;html=1;fillColor=none;strokeWidth=6;strokeColor=#B6F0EA;" parent="1" vertex="1">
          <mxGeometry x="390" y="1529.3" width="60" height="60" as="geometry" />
        </mxCell>
        <mxCell id="SEtLUzUUaOyPmekFhvSF-12" value="" style="endArrow=none;html=1;rounded=0;strokeWidth=6;strokeColor=#5D5C5E;" parent="1" edge="1">
          <mxGeometry width="50" height="50" relative="1" as="geometry">
            <mxPoint x="270" y="1559.66" as="sourcePoint" />
            <mxPoint x="380" y="1559.46" as="targetPoint" />
          </mxGeometry>
        </mxCell>
        <mxCell id="SEtLUzUUaOyPmekFhvSF-13" value="" style="endArrow=none;html=1;rounded=0;strokeWidth=6;strokeColor=#7E3CF0;" parent="1" edge="1">
          <mxGeometry width="50" height="50" relative="1" as="geometry">
            <mxPoint x="620" y="1630" as="sourcePoint" />
            <mxPoint x="700" y="1630" as="targetPoint" />
          </mxGeometry>
        </mxCell>
        <mxCell id="SEtLUzUUaOyPmekFhvSF-14" value="" style="endArrow=none;html=1;rounded=0;strokeWidth=6;strokeColor=#7E3CF0;" parent="1" edge="1">
          <mxGeometry width="50" height="50" relative="1" as="geometry">
            <mxPoint x="620" y="1609.3" as="sourcePoint" />
            <mxPoint x="700" y="1609.3" as="targetPoint" />
          </mxGeometry>
        </mxCell>
        <mxCell id="SEtLUzUUaOyPmekFhvSF-15" value="" style="endArrow=none;html=1;rounded=0;strokeWidth=6;strokeColor=#7E3CF0;" parent="1" edge="1">
          <mxGeometry width="50" height="50" relative="1" as="geometry">
            <mxPoint x="620" y="1490" as="sourcePoint" />
            <mxPoint x="700" y="1490" as="targetPoint" />
          </mxGeometry>
        </mxCell>
        <mxCell id="SEtLUzUUaOyPmekFhvSF-16" value="" style="endArrow=none;html=1;rounded=0;strokeWidth=6;strokeColor=#7E3CF0;" parent="1" edge="1">
          <mxGeometry width="50" height="50" relative="1" as="geometry">
            <mxPoint x="620" y="1509.3" as="sourcePoint" />
            <mxPoint x="700" y="1509.3" as="targetPoint" />
          </mxGeometry>
        </mxCell>
        <mxCell id="SEtLUzUUaOyPmekFhvSF-17" value="" style="ellipse;whiteSpace=wrap;html=1;fillColor=none;strokeWidth=6;strokeColor=#B6F0EA;" parent="1" vertex="1">
          <mxGeometry x="630" y="1529.3" width="60" height="60" as="geometry" />
        </mxCell>
        <mxCell id="lWsutf3mSmmxTho3NDpI-1" value="" style="rounded=0;whiteSpace=wrap;html=1;strokeColor=#C2C2C2;fillColor=none;strokeWidth=8;" vertex="1" parent="1">
          <mxGeometry x="700" y="1480" width="160" height="160" as="geometry" />
        </mxCell>
        <mxCell id="lWsutf3mSmmxTho3NDpI-2" value="" style="rounded=0;whiteSpace=wrap;html=1;strokeColor=#C2C2C2;fillColor=none;strokeWidth=8;" vertex="1" parent="1">
          <mxGeometry x="460" y="1479.3" width="160" height="160" as="geometry" />
        </mxCell>
        <mxCell id="lWsutf3mSmmxTho3NDpI-3" value="" style="endArrow=none;html=1;rounded=0;strokeWidth=6;strokeColor=#62BCF0;" edge="1" parent="1">
          <mxGeometry width="50" height="50" relative="1" as="geometry">
            <mxPoint x="950" y="1580.2" as="sourcePoint" />
            <mxPoint x="950" y="1540.2" as="targetPoint" />
          </mxGeometry>
        </mxCell>
        <mxCell id="lWsutf3mSmmxTho3NDpI-4" value="" style="endArrow=none;html=1;rounded=0;strokeWidth=6;strokeColor=#62BCF0;" edge="1" parent="1">
          <mxGeometry width="50" height="50" relative="1" as="geometry">
            <mxPoint x="970" y="1580.2" as="sourcePoint" />
            <mxPoint x="970" y="1540.2" as="targetPoint" />
          </mxGeometry>
        </mxCell>
        <mxCell id="lWsutf3mSmmxTho3NDpI-5" value="" style="endArrow=none;html=1;rounded=0;strokeWidth=6;strokeColor=#62BCF0;" edge="1" parent="1">
          <mxGeometry width="50" height="50" relative="1" as="geometry">
            <mxPoint x="1090" y="1580.2" as="sourcePoint" />
            <mxPoint x="1090" y="1540.2" as="targetPoint" />
          </mxGeometry>
        </mxCell>
        <mxCell id="lWsutf3mSmmxTho3NDpI-6" value="" style="endArrow=none;html=1;rounded=0;strokeWidth=6;strokeColor=#62BCF0;" edge="1" parent="1">
          <mxGeometry width="50" height="50" relative="1" as="geometry">
            <mxPoint x="1070" y="1580.2" as="sourcePoint" />
            <mxPoint x="1070" y="1540.2" as="targetPoint" />
          </mxGeometry>
        </mxCell>
        <mxCell id="lWsutf3mSmmxTho3NDpI-7" value="" style="endArrow=none;html=1;rounded=0;strokeWidth=6;strokeColor=#62BCF0;" edge="1" parent="1">
          <mxGeometry width="50" height="50" relative="1" as="geometry">
            <mxPoint x="1030" y="1580.2" as="sourcePoint" />
            <mxPoint x="1030" y="1540.2" as="targetPoint" />
          </mxGeometry>
        </mxCell>
        <mxCell id="lWsutf3mSmmxTho3NDpI-8" value="" style="endArrow=none;html=1;rounded=0;strokeWidth=6;strokeColor=#62BCF0;" edge="1" parent="1">
          <mxGeometry width="50" height="50" relative="1" as="geometry">
            <mxPoint x="1010" y="1580.2" as="sourcePoint" />
            <mxPoint x="1010" y="1540.2" as="targetPoint" />
          </mxGeometry>
        </mxCell>
        <mxCell id="lWsutf3mSmmxTho3NDpI-9" value="" style="ellipse;whiteSpace=wrap;html=1;aspect=fixed;strokeWidth=8;strokeColor=#62BCF0;fillColor=none;" vertex="1" parent="1">
          <mxGeometry x="965" y="1415" width="110" height="110" as="geometry" />
        </mxCell>
        <mxCell id="lWsutf3mSmmxTho3NDpI-10" value="" style="ellipse;whiteSpace=wrap;html=1;aspect=fixed;strokeWidth=8;strokeColor=#62BCF0;fillColor=none;" vertex="1" parent="1">
          <mxGeometry x="965" y="1595" width="110" height="110" as="geometry" />
        </mxCell>
        <mxCell id="lWsutf3mSmmxTho3NDpI-11" value="" style="endArrow=none;html=1;rounded=0;strokeWidth=6;strokeColor=#5D5C5E;" edge="1" parent="1">
          <mxGeometry width="50" height="50" relative="1" as="geometry">
            <mxPoint x="1010" y="1720" as="sourcePoint" />
            <mxPoint x="1010" y="1785" as="targetPoint" />
          </mxGeometry>
        </mxCell>
        <mxCell id="lWsutf3mSmmxTho3NDpI-12" value="" style="endArrow=none;html=1;rounded=0;strokeWidth=6;strokeColor=#5D5C5E;" edge="1" parent="1">
          <mxGeometry width="50" height="50" relative="1" as="geometry">
            <mxPoint x="1030" y="1720" as="sourcePoint" />
            <mxPoint x="1030" y="1785" as="targetPoint" />
          </mxGeometry>
        </mxCell>
        <mxCell id="lWsutf3mSmmxTho3NDpI-13" value="" style="ellipse;whiteSpace=wrap;html=1;fillColor=none;strokeWidth=6;strokeColor=#B6F0EA;" vertex="1" parent="1">
          <mxGeometry x="990" y="1620" width="60" height="60" as="geometry" />
        </mxCell>
        <mxCell id="lWsutf3mSmmxTho3NDpI-14" value="" style="ellipse;whiteSpace=wrap;html=1;fillColor=none;strokeWidth=6;strokeColor=#B6F0EA;" vertex="1" parent="1">
          <mxGeometry x="990" y="1440" width="60" height="60" as="geometry" />
        </mxCell>
        <mxCell id="lWsutf3mSmmxTho3NDpI-15" value="" style="endArrow=none;html=1;rounded=0;strokeWidth=6;strokeColor=#5D5C5E;" edge="1" parent="1">
          <mxGeometry width="50" height="50" relative="1" as="geometry">
            <mxPoint x="1009.68" y="1335" as="sourcePoint" />
            <mxPoint x="1009.68" y="1400" as="targetPoint" />
          </mxGeometry>
        </mxCell>
        <mxCell id="lWsutf3mSmmxTho3NDpI-16" value="" style="endArrow=none;html=1;rounded=0;strokeWidth=6;strokeColor=#5D5C5E;" edge="1" parent="1">
          <mxGeometry width="50" height="50" relative="1" as="geometry">
            <mxPoint x="1029.6799999999998" y="1335" as="sourcePoint" />
            <mxPoint x="1029.6799999999998" y="1400" as="targetPoint" />
          </mxGeometry>
        </mxCell>
        <mxCell id="lWsutf3mSmmxTho3NDpI-30" value="" style="whiteSpace=wrap;html=1;shape=mxgraph.basic.octagon2;align=center;verticalAlign=middle;dx=19;fillColor=none;strokeWidth=6;strokeColor=#18b0e2;" vertex="1" parent="1">
          <mxGeometry x="1430" y="1250" width="140" height="140" as="geometry" />
        </mxCell>
        <mxCell id="lWsutf3mSmmxTho3NDpI-31" value="" style="whiteSpace=wrap;html=1;shape=mxgraph.basic.octagon2;align=center;verticalAlign=middle;dx=13.68;fillColor=none;strokeWidth=6;strokeColor=#18b0e2;" vertex="1" parent="1">
          <mxGeometry x="1450" y="1270" width="100" height="100" as="geometry" />
        </mxCell>
        <mxCell id="lWsutf3mSmmxTho3NDpI-32" value="" style="whiteSpace=wrap;html=1;shape=mxgraph.basic.octagon2;align=center;verticalAlign=middle;dx=19;fillColor=none;strokeWidth=6;strokeColor=#18b0e2;" vertex="1" parent="1">
          <mxGeometry x="1430" y="1730" width="140" height="140" as="geometry" />
        </mxCell>
        <mxCell id="lWsutf3mSmmxTho3NDpI-33" value="" style="whiteSpace=wrap;html=1;shape=mxgraph.basic.octagon2;align=center;verticalAlign=middle;dx=13.68;fillColor=none;strokeWidth=6;strokeColor=#18b0e2;" vertex="1" parent="1">
          <mxGeometry x="1450" y="1750" width="100" height="100" as="geometry" />
        </mxCell>
        <mxCell id="lWsutf3mSmmxTho3NDpI-45" value="" style="rounded=0;whiteSpace=wrap;html=1;fillColor=none;strokeColor=none;" vertex="1" parent="1">
          <mxGeometry x="-160" y="744.3" width="2265" height="1630" as="geometry" />
        </mxCell>
      </root>
    </mxGraphModel>
  </diagram>
</mxfile>
